# xmcd CD database file generated by Grip 3.0.7
# 
# Track frame offsets:
#       150
#       12319
#       24628
#       36010
#       52999
#       65747
#       78948
#       91840
#       103644
#       115320
#       133987
#       147797
#       165835
#       177882
#       192871
#       205647
#       219944
#       236807
#       250886
#       274897
#       288328
#       299466
#       314076
# 
# Disc length: 4367 seconds
# 
# Revision: 1
# Processed by: cddbd v1.5PL3 Copyright (c) Steve Scherf et al.
# Submitted via: Grip 3.0.7
# 
DISCID=4f110d17
DTITLE=Johnny Cash - The Essential Johnny Cash  1955-1983 [CD3]
DYEAR=1998
DGENRE=Country
TTITLE0=Folsom Prison Blues (Live)
TTITLE1=Cocaine Blues (Live)
TTITLE2=San Quentin #2 (Live)
TTITLE3=A Boy Named Sue (Live)
TTITLE4=Wanted Man
TTITLE5=Singin' In Vietnam Talkin' Blues
TTITLE6=Man in Black
TTITLE7=What is Truth
TTITLE8=Flesh and Blood
TTITLE9=Sunday Morning Coming Down
TTITLE10=Oney
TTITLE11=One Piece at a Time
TTITLE12=Hit the Road and Go
TTITLE13=Rockability Blues (Texas 1955)
TTITLE14=I Will Rock and Roll with You
TTITLE15=No Expectations
TTITLE16=(Ghost) Riders in the Sky
TTITLE17=Bull Rider
TTITLE18=Highway Patrolman
TTITLE19=After the Ball
TTITLE20=Without Love
TTITLE21=The Last Time
TTITLE22=I'm Gonna Sit on the Porch and Pick on My Old Guitar
EXTD=Columbia/Legacy - C3K 47991\nDisk 2 of 3\n
EXTT0=
EXTT1=
EXTT2=
EXTT3=
EXTT4=
EXTT5=
EXTT6=
EXTT7=
EXTT8=
EXTT9=
EXTT10=
EXTT11=
EXTT12=
EXTT13=
EXTT14=
EXTT15=
EXTT16=
EXTT17=
EXTT18=
EXTT19=
EXTT20=
EXTT21=
EXTT22=
PLAYORDER=
